M48
; DRILL file {KiCad 7.0.6} date dom 30 jul 2023 11:34:07
; FORMAT={-:-/ absolute / inch / decimal}
; #@! TF.CreationDate,2023-07-30T11:34:07+01:00
; #@! TF.GenerationSoftware,Kicad,Pcbnew,7.0.6
; #@! TF.FileFunction,Plated,1,2,PTH
FMAT,2
INCH
; #@! TA.AperFunction,Plated,PTH,ViaDrill
T1C0.0157
; #@! TA.AperFunction,Plated,PTH,ComponentDrill
T2C0.0236
; #@! TA.AperFunction,Plated,PTH,ComponentDrill
T3C0.0276
; #@! TA.AperFunction,Plated,PTH,ComponentDrill
T4C0.0315
; #@! TA.AperFunction,Plated,PTH,ComponentDrill
T5C0.0354
; #@! TA.AperFunction,Plated,PTH,ComponentDrill
T6C0.0362
; #@! TA.AperFunction,Plated,PTH,ComponentDrill
T7C0.0394
; #@! TA.AperFunction,Plated,PTH,ComponentDrill
T8C0.0433
; #@! TA.AperFunction,Plated,PTH,ComponentDrill
T9C0.0917
%
G90
G05
T1
X2.4823Y-2.7923
X2.4941Y-2.9026
X2.565Y-2.7589
X2.6161Y-2.7881
X2.6311Y-2.6202
X2.689Y-2.8159
X2.7411Y-2.4291
X2.7441Y-2.7687
X2.774Y-3.1585
X2.7815Y-3.439
X2.8482Y-2.6447
X2.8701Y-3.0463
X2.8787Y-2.6696
X2.9075Y-2.1644
X2.9219Y-3.2206
X2.9262Y-2.4183
X2.9587Y-2.7667
X2.9656Y-3.4734
X2.9931Y-2.6299
X3.0423Y-3.4734
X3.0551Y-2.7667
X3.0945Y-2.0974
X3.097Y-3.3086
X3.1152Y-3.4104
X3.126Y-3.0463
X3.127Y-2.6152
X3.1516Y-2.2077
X3.1624Y-3.4626
X3.177Y-2.1065
X3.2087Y-2.8642
X3.2469Y-2.564
X3.251Y-3.0423
X3.3159Y-2.4636
X3.3366Y-2.4124
X3.3445Y-2.7608
X3.3583Y-2.5846
X3.3652Y-3.4518
X3.3805Y-3.3149
X3.3957Y-2.4508
X3.4301Y-2.1585
X3.4616Y-3.5266
X3.4646Y-2.5836
X3.4665Y-2.7608
X3.4941Y-2.4705
X3.5472Y-2.8297
X3.56Y-3.5216
X3.5768Y-3.252
X3.5915Y-3.3149
X3.5965Y-2.7884
X3.6228Y-2.136
X3.6575Y-3.2365
X3.6634Y-3.5216
X3.7104Y-3.2364
X3.7175Y-2.6752
X3.7707Y-3.2077
X3.8327Y-2.1437
X3.9852Y-3.3041
X4.0502Y-3.4813
X4.0681Y-2.7984
X4.092Y-2.6649
X4.0974Y-3.4803
X4.1462Y-3.4592
X4.1943Y-2.4547
X4.1994Y-3.4396
X4.2343Y-3.4213
X4.2638Y-2.3553
X4.3567Y-3.2726
X4.3878Y-2.8907
X4.3937Y-2.5512
X4.3996Y-3.0522
X4.4077Y-2.9247
X4.4606Y-2.9616
X4.4671Y-3.0103
X4.4675Y-3.0502
X4.4853Y-2.5591
X4.5541Y-2.0246
X4.6093Y-1.4843
X4.7215Y-3.2726
X4.7421Y-1.872
X4.7849Y-3.1718
X4.8031Y-3.0571
X4.8179Y-2.0472
X4.8524Y-2.0866
X4.8671Y-2.5669
X4.9419Y-2.4439
X4.9518Y-1.6417
X4.9715Y-1.7835
X4.9756Y-1.8827
X4.9892Y-2.1358
X4.9945Y-2.0545
X5.0059Y-2.6014
X5.0083Y-2.3625
X5.0089Y-3.6398
X5.0128Y-2.9754
X5.0492Y-1.7913
X5.0577Y-2.8061
X5.0925Y-1.8825
X5.1024Y-2.9163
X5.1325Y-1.7807
X5.1565Y-2.7825
X5.1862Y-2.934
X5.2067Y-2.7756
X5.2577Y-2.7421
X5.2647Y-2.2036
X5.2697Y-1.9911
X5.2756Y-2.0955
X5.315Y-2.7461
X5.3169Y-2.9931
X5.3553Y-3.5315
X5.3661Y-2.7333
X5.374Y-2.2244
X5.3937Y-2.7854
X5.4395Y-2.7111
X5.4764Y-2.685
X5.5492Y-2.5719
X5.5807Y-1.8012
X5.6181Y-2.7687
X5.6189Y-2.688
X5.6299Y-3.001
X5.6577Y-2.6811
X5.7126Y-3.003
X5.7559Y-2.5974
X5.8091Y-2.999
X5.81Y-2.1112
X5.8609Y-2.3507
X5.8839Y-2.441
X5.9075Y-2.999
X6.0098Y-2.999
X6.0185Y-2.3996
X6.0451Y-2.2274
X6.0896Y-3.1988
X6.0945Y-2.3711
T2
X3.4709Y-1.4528
X3.53Y-1.4528
T3
X3.3783Y-1.6657
X3.6783Y-1.6657
X4.9051Y-3.3642
X5.2051Y-3.3642
X5.2949Y-3.3642
X5.5949Y-3.3642
X5.6886Y-3.3642
X5.9886Y-3.3642
T4
X2.4409Y-2.0276
X2.4409Y-2.126
X2.4591Y-1.9055
X2.5455Y-2.0346
X2.5455Y-2.3346
X2.5469Y-2.5102
X2.5469Y-3.1102
X2.5591Y-1.9055
X2.6455Y-2.0346
X2.6455Y-2.3346
X2.6469Y-2.5102
X2.6469Y-3.1102
X2.6591Y-1.9055
X2.7455Y-2.0346
X2.7455Y-2.3346
X2.7469Y-2.5102
X2.7469Y-3.1102
X2.7591Y-1.9055
X2.8455Y-2.0346
X2.8455Y-2.3346
X2.8469Y-2.5102
X2.8469Y-3.1102
X2.8591Y-1.9055
X2.9455Y-2.0346
X2.9455Y-2.3346
X2.9469Y-2.5102
X2.9469Y-3.1102
X2.9591Y-1.9055
X3.0455Y-2.0346
X3.0455Y-2.3346
X3.0469Y-2.5102
X3.0469Y-3.1102
X3.0591Y-1.9055
X3.1455Y-2.0346
X3.1455Y-2.3346
X3.1469Y-2.5102
X3.1469Y-3.1102
X3.1591Y-1.9055
X3.2469Y-2.5102
X3.2469Y-3.1102
X3.248Y-3.2185
X3.248Y-3.3169
X3.2591Y-1.9055
X3.2827Y-2.0362
X3.2827Y-2.3362
X3.3469Y-2.5102
X3.3469Y-3.1102
X3.3819Y-1.9252
X3.3827Y-2.0362
X3.3827Y-2.3362
X3.4469Y-2.5102
X3.4469Y-3.1102
X3.4803Y-1.9252
X3.4827Y-2.0362
X3.4827Y-2.3362
X3.5469Y-2.5102
X3.5469Y-3.1102
X3.5827Y-2.0362
X3.5827Y-2.3362
X3.6469Y-2.5102
X3.6469Y-3.1102
X3.6827Y-2.0362
X3.6827Y-2.3362
X3.7417Y-1.4669
X3.7469Y-2.5102
X3.7469Y-3.1102
X3.7827Y-2.0362
X3.7827Y-2.3362
X3.8417Y-1.4669
X3.8469Y-2.5102
X3.8469Y-3.1102
X3.8827Y-2.0362
X3.8827Y-2.3362
X3.9417Y-1.4669
X3.9469Y-2.5102
X3.9469Y-3.1102
X3.9827Y-2.0362
X3.9827Y-2.3362
X3.9882Y-1.5748
X3.9882Y-1.8748
X4.0417Y-1.4669
X4.0469Y-2.5102
X4.0469Y-3.1102
X4.0882Y-1.5748
X4.0882Y-1.8748
X4.1417Y-1.4669
X4.1469Y-2.5102
X4.1469Y-3.1102
X4.1594Y-2.0378
X4.1594Y-2.3378
X4.1882Y-1.5748
X4.1882Y-1.8748
X4.2417Y-1.4669
X4.2469Y-2.5102
X4.2469Y-3.1102
X4.2882Y-1.5748
X4.2882Y-1.8748
X4.3417Y-1.4669
X4.3469Y-2.5102
X4.3469Y-3.1102
X4.3882Y-1.5748
X4.3882Y-1.8748
X4.4417Y-1.4669
X4.4469Y-2.5102
X4.4469Y-3.1102
X4.4594Y-2.0378
X4.4594Y-2.3378
X4.4882Y-1.5748
X4.4882Y-1.8748
X4.5417Y-1.4669
X4.6693Y-2.4104
X4.6835Y-1.6039
X4.7008Y-1.7079
X4.7008Y-2.3079
X4.702Y-2.5158
X4.702Y-3.1158
X4.7677Y-2.4104
X4.7819Y-1.6039
X4.8008Y-1.7079
X4.8008Y-2.3079
X4.802Y-2.5158
X4.802Y-3.1158
X4.9008Y-1.7079
X4.9008Y-2.3079
X4.902Y-2.5158
X4.902Y-3.1158
X5.0008Y-1.7079
X5.0008Y-2.3079
X5.001Y-3.2815
X5.002Y-2.5158
X5.002Y-3.1158
X5.0994Y-3.2815
X5.1008Y-1.7079
X5.1008Y-2.3079
X5.102Y-2.5158
X5.102Y-3.1158
X5.2008Y-1.7079
X5.2008Y-2.3079
X5.202Y-2.5158
X5.202Y-3.1158
X5.3008Y-1.7079
X5.3008Y-2.3079
X5.302Y-2.5158
X5.302Y-3.1158
X5.351Y-1.8539
X5.351Y-1.9539
X5.351Y-2.0539
X5.351Y-2.1539
X5.3947Y-3.2815
X5.4008Y-1.7079
X5.4008Y-2.3079
X5.402Y-2.5158
X5.402Y-3.1158
X5.451Y-1.7539
X5.451Y-1.8539
X5.451Y-1.9539
X5.451Y-2.0539
X5.451Y-2.1539
X5.451Y-2.2539
X5.4931Y-3.2815
X5.5008Y-1.7079
X5.5008Y-2.3079
X5.502Y-2.5158
X5.502Y-3.1158
X5.551Y-1.7539
X5.551Y-1.8539
X5.551Y-2.1539
X5.551Y-2.2539
X5.6008Y-1.7079
X5.6008Y-2.3079
X5.602Y-2.5158
X5.602Y-3.1158
X5.651Y-1.7539
X5.651Y-1.8539
X5.651Y-2.1539
X5.651Y-2.2539
X5.7008Y-1.7079
X5.7008Y-2.3079
X5.702Y-2.5158
X5.702Y-3.1158
X5.751Y-1.7539
X5.751Y-1.8539
X5.751Y-2.1539
X5.751Y-2.2539
X5.7884Y-3.2815
X5.8008Y-1.7079
X5.8008Y-2.3079
X5.802Y-2.5158
X5.802Y-3.1158
X5.851Y-1.7539
X5.851Y-1.8539
X5.851Y-1.9539
X5.851Y-2.0539
X5.851Y-2.1539
X5.851Y-2.2539
X5.8868Y-3.2815
X5.9008Y-1.7079
X5.9008Y-2.3079
X5.902Y-2.5158
X5.902Y-3.1158
X5.951Y-1.8539
X5.951Y-1.9539
X5.951Y-2.0539
X5.951Y-2.1539
X6.0008Y-1.7079
X6.0008Y-2.3079
X6.002Y-2.5158
X6.002Y-3.1158
X6.1008Y-1.7079
X6.1008Y-2.3079
X6.102Y-2.5158
X6.102Y-3.1158
X6.2008Y-1.7079
X6.2008Y-2.3079
X6.202Y-2.5158
X6.202Y-3.1158
T5
X3.4177Y-1.1535
X3.4177Y-1.2835
X3.5161Y-1.1535
X3.5161Y-1.2835
X3.6146Y-1.1535
X3.6146Y-1.2835
X3.8551Y-1.1858
X3.8551Y-1.2858
T6
X2.9528Y-1.624
X2.9528Y-1.7028
X3.0512Y-1.624
X3.0512Y-1.7028
T7
X2.7091Y-3.563
X2.7091Y-3.663
X2.8091Y-3.563
X2.8091Y-3.663
X2.9091Y-3.563
X2.9091Y-3.663
X3.0091Y-3.563
X3.0091Y-3.663
X3.1091Y-3.563
X3.1091Y-3.663
X3.2091Y-3.563
X3.2091Y-3.663
X3.3091Y-3.563
X3.3091Y-3.663
X3.4091Y-3.563
X3.4091Y-3.663
X3.5091Y-3.563
X3.5091Y-3.663
X3.6091Y-3.563
X3.6091Y-3.663
X3.672Y-1.7906
X3.672Y-1.8906
X3.7091Y-3.563
X3.7091Y-3.663
X3.772Y-1.7906
X3.772Y-1.8906
X3.8091Y-3.563
X3.8091Y-3.663
X3.9091Y-3.563
X3.9091Y-3.663
X4.0091Y-3.563
X4.0091Y-3.663
X4.1091Y-3.563
X4.1091Y-3.663
X4.2091Y-3.563
X4.2091Y-3.663
X4.3091Y-3.563
X4.3091Y-3.663
X4.4091Y-3.563
X4.4091Y-3.663
X4.5091Y-3.563
X4.5091Y-3.663
X4.6091Y-3.563
X4.6091Y-3.663
X4.7539Y-3.4646
X4.7539Y-3.5646
X4.7539Y-3.6646
T8
X4.9222Y-3.4646
X4.9222Y-3.6417
X5.1781Y-3.4646
X5.1781Y-3.6417
X5.3159Y-3.4646
X5.3159Y-3.6417
X5.5719Y-3.4646
X5.5719Y-3.6417
X5.7096Y-3.4646
X5.7096Y-3.6417
X5.9656Y-3.4646
X5.9656Y-3.6417
T9
X2.765Y-1.5173
X3.239Y-1.5173
T0
M30
