%TF.GenerationSoftware,KiCad,Pcbnew,7.0.6*%
%TF.CreationDate,2023-07-30T11:34:10+01:00*%
%TF.ProjectId,MinFox,4d696e46-6f78-42e6-9b69-6361645f7063,rev?*%
%TF.SameCoordinates,Original*%
%TF.FileFunction,Soldermask,Top*%
%TF.FilePolarity,Negative*%
%FSLAX46Y46*%
G04 Gerber Fmt 4.6, Leading zero omitted, Abs format (unit mm)*
G04 Created by KiCad (PCBNEW 7.0.6) date 2023-07-30 11:34:10*
%MOMM*%
%LPD*%
G01*
G04 APERTURE LIST*
%ADD10C,2.948682*%
%ADD11C,1.400000*%
%ADD12O,1.400000X1.400000*%
%ADD13R,1.400000X1.400000*%
%ADD14R,1.422400X1.422400*%
%ADD15C,1.422400*%
%ADD16R,1.600000X1.600000*%
%ADD17O,1.600000X1.600000*%
%ADD18C,2.000000*%
%ADD19C,1.600000*%
%ADD20R,1.700000X1.700000*%
%ADD21O,1.700000X1.700000*%
%ADD22C,3.200000*%
%ADD23R,1.800000X1.800000*%
%ADD24C,1.800000*%
%ADD25R,1.200000X1.200000*%
%ADD26C,1.200000*%
%ADD27C,1.700000*%
%ADD28C,3.500000*%
G04 APERTURE END LIST*
D10*
X157974341Y-31500000D02*
G75*
G03*
X157974341Y-31500000I-1474341J0D01*
G01*
X64974341Y-92500000D02*
G75*
G03*
X64974341Y-92500000I-1474341J0D01*
G01*
X64974341Y-31504000D02*
G75*
G03*
X64974341Y-31504000I-1474341J0D01*
G01*
X157974341Y-92500000D02*
G75*
G03*
X157974341Y-92500000I-1474341J0D01*
G01*
D11*
%TO.C,R4*%
X144490000Y-85450000D03*
D12*
X152110000Y-85450000D03*
%TD*%
D11*
%TO.C,R3*%
X134490000Y-85450000D03*
D12*
X142110000Y-85450000D03*
%TD*%
D11*
%TO.C,R2*%
X124590000Y-85450000D03*
D12*
X132210000Y-85450000D03*
%TD*%
D13*
%TO.C,SW1*%
X91810000Y-32600000D03*
D11*
X89310000Y-32600000D03*
X86810000Y-32600000D03*
X91810000Y-29300000D03*
X89310000Y-29300000D03*
X86810000Y-29300000D03*
%TD*%
D14*
%TO.C,U6*%
X138455000Y-49630000D03*
D15*
X135915000Y-52170000D03*
X138455000Y-52170000D03*
X135915000Y-54710000D03*
X138455000Y-57250000D03*
X138455000Y-54710000D03*
X140995000Y-57250000D03*
X140995000Y-54710000D03*
X143535000Y-57250000D03*
X143535000Y-54710000D03*
X146075000Y-57250000D03*
X146075000Y-54710000D03*
X148615000Y-57250000D03*
X151155000Y-54710000D03*
X148615000Y-54710000D03*
X151155000Y-52170000D03*
X148615000Y-52170000D03*
X151155000Y-49630000D03*
X148615000Y-49630000D03*
X151155000Y-47090000D03*
X148615000Y-44550000D03*
X148615000Y-47090000D03*
X146075000Y-44550000D03*
X146075000Y-47090000D03*
X143535000Y-44550000D03*
X143535000Y-47090000D03*
X140995000Y-44550000D03*
X140995000Y-47090000D03*
X138455000Y-44550000D03*
X135915000Y-47090000D03*
X138455000Y-47090000D03*
X135915000Y-49630000D03*
%TD*%
D16*
%TO.C,U1*%
X64690000Y-79000000D03*
D17*
X67230000Y-79000000D03*
X69770000Y-79000000D03*
X72310000Y-79000000D03*
X74850000Y-79000000D03*
X77390000Y-79000000D03*
X79930000Y-79000000D03*
X82470000Y-79000000D03*
X85010000Y-79000000D03*
X87550000Y-79000000D03*
X90090000Y-79000000D03*
X92630000Y-79000000D03*
X95170000Y-79000000D03*
X97710000Y-79000000D03*
X100250000Y-79000000D03*
X102790000Y-79000000D03*
X105330000Y-79000000D03*
X107870000Y-79000000D03*
X110410000Y-79000000D03*
X112950000Y-79000000D03*
X112950000Y-63760000D03*
X110410000Y-63760000D03*
X107870000Y-63760000D03*
X105330000Y-63760000D03*
X102790000Y-63760000D03*
X100250000Y-63760000D03*
X97710000Y-63760000D03*
X95170000Y-63760000D03*
X92630000Y-63760000D03*
X90090000Y-63760000D03*
X87550000Y-63760000D03*
X85010000Y-63760000D03*
X82470000Y-63760000D03*
X79930000Y-63760000D03*
X77390000Y-63760000D03*
X74850000Y-63760000D03*
X72310000Y-63760000D03*
X69770000Y-63760000D03*
X67230000Y-63760000D03*
X64690000Y-63760000D03*
%TD*%
D16*
%TO.C,U2*%
X64655000Y-59300000D03*
D17*
X67195000Y-59300000D03*
X69735000Y-59300000D03*
X72275000Y-59300000D03*
X74815000Y-59300000D03*
X77355000Y-59300000D03*
X79895000Y-59300000D03*
X79895000Y-51680000D03*
X77355000Y-51680000D03*
X74815000Y-51680000D03*
X72275000Y-51680000D03*
X69735000Y-51680000D03*
X67195000Y-51680000D03*
X64655000Y-51680000D03*
%TD*%
D18*
%TO.C,TP1*%
X62525000Y-36900000D03*
%TD*%
D19*
%TO.C,C6*%
X85900000Y-48900000D03*
X88400000Y-48900000D03*
%TD*%
%TO.C,C4*%
X149525000Y-83350000D03*
X147025000Y-83350000D03*
%TD*%
%TO.C,C3*%
X129525000Y-83350000D03*
X127025000Y-83350000D03*
%TD*%
D16*
%TO.C,X1*%
X105650000Y-59380000D03*
D19*
X113270000Y-59380000D03*
X113270000Y-51760000D03*
X105650000Y-51760000D03*
%TD*%
D20*
%TO.C,J3*%
X68810000Y-90500000D03*
D21*
X68810000Y-93040000D03*
X71350000Y-90500000D03*
X71350000Y-93040000D03*
X73890000Y-90500000D03*
X73890000Y-93040000D03*
X76430000Y-90500000D03*
X76430000Y-93040000D03*
X78970000Y-90500000D03*
X78970000Y-93040000D03*
X81510000Y-90500000D03*
X81510000Y-93040000D03*
X84050000Y-90500000D03*
X84050000Y-93040000D03*
X86590000Y-90500000D03*
X86590000Y-93040000D03*
X89130000Y-90500000D03*
X89130000Y-93040000D03*
X91670000Y-90500000D03*
X91670000Y-93040000D03*
X94210000Y-90500000D03*
X94210000Y-93040000D03*
X96750000Y-90500000D03*
X96750000Y-93040000D03*
X99290000Y-90500000D03*
X99290000Y-93040000D03*
X101830000Y-90500000D03*
X101830000Y-93040000D03*
X104370000Y-90500000D03*
X104370000Y-93040000D03*
X106910000Y-90500000D03*
X106910000Y-93040000D03*
X109450000Y-90500000D03*
X109450000Y-93040000D03*
X111990000Y-90500000D03*
X111990000Y-93040000D03*
X114530000Y-90500000D03*
X114530000Y-93040000D03*
X117070000Y-90500000D03*
X117070000Y-93040000D03*
%TD*%
D22*
%TO.C,H2*%
X156500000Y-31500000D03*
%TD*%
D19*
%TO.C,C9*%
X118600000Y-61225000D03*
X121100000Y-61225000D03*
%TD*%
D11*
%TO.C,R1*%
X85810000Y-42310000D03*
D12*
X93430000Y-42310000D03*
%TD*%
D16*
%TO.C,SW5*%
X101300000Y-47620000D03*
D17*
X103840000Y-47620000D03*
X106380000Y-47620000D03*
X108920000Y-47620000D03*
X111460000Y-47620000D03*
X114000000Y-47620000D03*
X114000000Y-40000000D03*
X111460000Y-40000000D03*
X108920000Y-40000000D03*
X106380000Y-40000000D03*
X103840000Y-40000000D03*
X101300000Y-40000000D03*
%TD*%
D19*
%TO.C,C2*%
X139525000Y-83350000D03*
X137025000Y-83350000D03*
%TD*%
%TO.C,C7*%
X62000000Y-51500000D03*
X62000000Y-54000000D03*
%TD*%
D18*
%TO.C,TP2*%
X62525000Y-40250000D03*
%TD*%
D16*
%TO.C,RN2*%
X95040000Y-37260000D03*
D17*
X97580000Y-37260000D03*
X100120000Y-37260000D03*
X102660000Y-37260000D03*
X105200000Y-37260000D03*
X107740000Y-37260000D03*
X110280000Y-37260000D03*
X112820000Y-37260000D03*
X115360000Y-37260000D03*
%TD*%
D18*
%TO.C,SW2*%
X131525000Y-92500000D03*
X125025000Y-92500000D03*
X131525000Y-88000000D03*
X125025000Y-88000000D03*
%TD*%
D23*
%TO.C,D1*%
X97920000Y-32660000D03*
D24*
X97920000Y-30120000D03*
%TD*%
D20*
%TO.C,J4*%
X93270000Y-45480000D03*
D21*
X95810000Y-45480000D03*
X93270000Y-48020000D03*
X95810000Y-48020000D03*
%TD*%
D16*
%TO.C,U3*%
X83380000Y-59340000D03*
D17*
X85920000Y-59340000D03*
X88460000Y-59340000D03*
X91000000Y-59340000D03*
X93540000Y-59340000D03*
X96080000Y-59340000D03*
X98620000Y-59340000D03*
X101160000Y-59340000D03*
X101160000Y-51720000D03*
X98620000Y-51720000D03*
X96080000Y-51720000D03*
X93540000Y-51720000D03*
X91000000Y-51720000D03*
X88460000Y-51720000D03*
X85920000Y-51720000D03*
X83380000Y-51720000D03*
%TD*%
D25*
%TO.C,C1*%
X89662000Y-36900000D03*
D26*
X88162000Y-36900000D03*
%TD*%
D22*
%TO.C,H3*%
X63500000Y-92500000D03*
%TD*%
D16*
%TO.C,U5*%
X119400000Y-58620000D03*
D17*
X121940000Y-58620000D03*
X124480000Y-58620000D03*
X127020000Y-58620000D03*
X129560000Y-58620000D03*
X132100000Y-58620000D03*
X134640000Y-58620000D03*
X137180000Y-58620000D03*
X139720000Y-58620000D03*
X142260000Y-58620000D03*
X144800000Y-58620000D03*
X147340000Y-58620000D03*
X149880000Y-58620000D03*
X152420000Y-58620000D03*
X154960000Y-58620000D03*
X157500000Y-58620000D03*
X157500000Y-43380000D03*
X154960000Y-43380000D03*
X152420000Y-43380000D03*
X149880000Y-43380000D03*
X147340000Y-43380000D03*
X144800000Y-43380000D03*
X142260000Y-43380000D03*
X139720000Y-43380000D03*
X137180000Y-43380000D03*
X134640000Y-43380000D03*
X132100000Y-43380000D03*
X129560000Y-43380000D03*
X127020000Y-43380000D03*
X124480000Y-43380000D03*
X121940000Y-43380000D03*
X119400000Y-43380000D03*
%TD*%
D18*
%TO.C,TP3*%
X62525000Y-43700000D03*
%TD*%
D20*
%TO.C,J2*%
X120750000Y-88000000D03*
D21*
X120750000Y-90540000D03*
X120750000Y-93080000D03*
%TD*%
D20*
%TO.C,J1*%
X75000000Y-43250000D03*
D27*
X77500000Y-43250000D03*
X77500000Y-41250000D03*
X75000000Y-41250000D03*
D28*
X70230000Y-38540000D03*
X82270000Y-38540000D03*
%TD*%
D16*
%TO.C,U4*%
X119430000Y-79142000D03*
D17*
X121970000Y-79142000D03*
X124510000Y-79142000D03*
X127050000Y-79142000D03*
X129590000Y-79142000D03*
X132130000Y-79142000D03*
X134670000Y-79142000D03*
X137210000Y-79142000D03*
X139750000Y-79142000D03*
X142290000Y-79142000D03*
X144830000Y-79142000D03*
X147370000Y-79142000D03*
X149910000Y-79142000D03*
X152450000Y-79142000D03*
X154990000Y-79142000D03*
X157530000Y-79142000D03*
X157530000Y-63902000D03*
X154990000Y-63902000D03*
X152450000Y-63902000D03*
X149910000Y-63902000D03*
X147370000Y-63902000D03*
X144830000Y-63902000D03*
X142290000Y-63902000D03*
X139750000Y-63902000D03*
X137210000Y-63902000D03*
X134670000Y-63902000D03*
X132130000Y-63902000D03*
X129590000Y-63902000D03*
X127050000Y-63902000D03*
X124510000Y-63902000D03*
X121970000Y-63902000D03*
X119430000Y-63902000D03*
%TD*%
D18*
%TO.C,SW3*%
X141525000Y-92500000D03*
X135025000Y-92500000D03*
X141525000Y-88000000D03*
X135025000Y-88000000D03*
%TD*%
%TO.C,SW4*%
X151525000Y-92500000D03*
X145025000Y-92500000D03*
X151525000Y-88000000D03*
X145025000Y-88000000D03*
%TD*%
D16*
%TO.C,RN1*%
X62460000Y-48400000D03*
D17*
X65000000Y-48400000D03*
X67540000Y-48400000D03*
X70080000Y-48400000D03*
X72620000Y-48400000D03*
X75160000Y-48400000D03*
X77700000Y-48400000D03*
X80240000Y-48400000D03*
X82780000Y-48400000D03*
%TD*%
D22*
%TO.C,H1*%
X63500000Y-31500000D03*
%TD*%
%TO.C,H4*%
X156500000Y-92500000D03*
%TD*%
D19*
%TO.C,C8*%
X121460000Y-40740000D03*
X118960000Y-40740000D03*
%TD*%
%TO.C,C5*%
X82500000Y-81750000D03*
X82500000Y-84250000D03*
%TD*%
M02*
